<mxfile host="app.diagrams.net" agent="Mozilla/5.0 (Macintosh; Intel Mac OS X 10_15_7) AppleWebKit/537.36 (KHTML, like Gecko) Chrome/131.0.0.0 Safari/537.36" version="26.0.1">
  <diagram name="페이지-1" id="Nq4yGYuZbrCvw5U8-iED">
    <mxGraphModel dx="1911" dy="3598" grid="1" gridSize="10" guides="1" tooltips="1" connect="1" arrows="1" fold="1" page="1" pageScale="1" pageWidth="827" pageHeight="1169" math="0" shadow="0">
      <root>
        <mxCell id="0" />
        <mxCell id="1" parent="0" />
        <mxCell id="1A47Y8RJJ1MLDTLqIAWW-1" value="" style="rounded=0;whiteSpace=wrap;html=1;fillColor=#000000;" vertex="1" parent="1">
          <mxGeometry x="30" y="-2328" width="1605.75" height="810" as="geometry" />
        </mxCell>
        <mxCell id="1A47Y8RJJ1MLDTLqIAWW-83" value="" style="rounded=1;whiteSpace=wrap;html=1;fillColor=#1ba1e2;fontColor=#ffffff;strokeColor=#006EAF;" vertex="1" parent="1">
          <mxGeometry x="925.75" y="-2308" width="650" height="720" as="geometry" />
        </mxCell>
        <mxCell id="1A47Y8RJJ1MLDTLqIAWW-78" value="" style="rounded=1;whiteSpace=wrap;html=1;fillColor=#1ba1e2;fontColor=#ffffff;strokeColor=#006EAF;" vertex="1" parent="1">
          <mxGeometry x="80" y="-2308" width="650" height="600" as="geometry" />
        </mxCell>
        <mxCell id="1A47Y8RJJ1MLDTLqIAWW-4" value="&lt;h3&gt;&lt;font style=&quot;&quot; face=&quot;Comic Sans MS&quot;&gt;SIMPLYRUN 백엔드 서버&lt;/font&gt;&lt;/h3&gt;" style="rounded=1;whiteSpace=wrap;html=1;fillColor=#0050ef;strokeColor=#001DBC;fontColor=#ffffff;" vertex="1" parent="1">
          <mxGeometry x="165.5" y="-2128" width="466" height="50" as="geometry" />
        </mxCell>
        <mxCell id="1A47Y8RJJ1MLDTLqIAWW-5" value="&lt;h4&gt;&lt;font face=&quot;Comic Sans MS&quot;&gt;&lt;br&gt;&lt;/font&gt;&lt;font face=&quot;Comic Sans MS&quot;&gt;&lt;br&gt;&lt;/font&gt;&lt;font face=&quot;Comic Sans MS&quot;&gt;&lt;br&gt;&lt;br&gt;&lt;br&gt;&lt;br&gt;&lt;br&gt;&lt;br&gt;&lt;br&gt;&lt;br&gt;&lt;br&gt;&lt;br&gt;&lt;br&gt;&lt;br&gt;&lt;br&gt;&lt;br&gt;&lt;br&gt;&lt;br&gt;&lt;/font&gt;&lt;span style=&quot;font-family: &amp;quot;Comic Sans MS&amp;quot;; background-color: initial;&quot;&gt;Spring Security&lt;/span&gt;&lt;/h4&gt;" style="rounded=1;whiteSpace=wrap;html=1;fillColor=#d80073;strokeColor=#A50040;fontColor=#ffffff;" vertex="1" parent="1">
          <mxGeometry x="165.5" y="-2048" width="466" height="300" as="geometry" />
        </mxCell>
        <mxCell id="1A47Y8RJJ1MLDTLqIAWW-6" value="&lt;h6&gt;&lt;font color=&quot;#ffffff&quot;&gt;HTTP Request&lt;/font&gt;&lt;/h6&gt;" style="rounded=1;whiteSpace=wrap;html=1;fillColor=#111D70;" vertex="1" parent="1">
          <mxGeometry x="501.5" y="-2113" width="70" height="20" as="geometry" />
        </mxCell>
        <mxCell id="1A47Y8RJJ1MLDTLqIAWW-8" value="&lt;h3&gt;&lt;br&gt;&lt;br&gt;&lt;br&gt;&lt;br&gt;&lt;br&gt;&lt;br&gt;&lt;br&gt;&lt;br&gt;&lt;span style=&quot;background-color: initial;&quot;&gt;&lt;font style=&quot;&quot; size=&quot;1&quot;&gt;소셜 로그인 (네이버)&lt;br&gt;&lt;/font&gt;&lt;/span&gt;&lt;span style=&quot;background-color: initial; font-size: 12px;&quot;&gt;HTTP Filter Chain&lt;/span&gt;&lt;/h3&gt;" style="rounded=1;whiteSpace=wrap;html=1;fillColor=default;strokeColor=#36393d;shadow=0;glass=0;gradientColor=none;fillStyle=auto;" vertex="1" parent="1">
          <mxGeometry x="456.5" y="-2028" width="160" height="180" as="geometry" />
        </mxCell>
        <mxCell id="1A47Y8RJJ1MLDTLqIAWW-9" value="" style="edgeStyle=orthogonalEdgeStyle;rounded=1;orthogonalLoop=1;jettySize=auto;html=1;curved=0;strokeWidth=2;" edge="1" parent="1" source="1A47Y8RJJ1MLDTLqIAWW-10">
          <mxGeometry relative="1" as="geometry">
            <mxPoint x="536.5" y="-1933" as="targetPoint" />
          </mxGeometry>
        </mxCell>
        <mxCell id="1A47Y8RJJ1MLDTLqIAWW-10" value="&lt;h6&gt;HTTP Request&lt;/h6&gt;" style="rounded=1;whiteSpace=wrap;html=1;fillColor=#111D70;fontColor=#ffffff;strokeColor=#432D57;" vertex="1" parent="1">
          <mxGeometry x="501.5" y="-2008" width="70" height="20" as="geometry" />
        </mxCell>
        <mxCell id="1A47Y8RJJ1MLDTLqIAWW-12" value="&lt;div&gt;&lt;b&gt;&lt;br&gt;&lt;/b&gt;&lt;/div&gt;&lt;div&gt;&lt;b&gt;&lt;br&gt;&lt;/b&gt;&lt;/div&gt;&lt;div&gt;&lt;b&gt;&lt;br&gt;&lt;/b&gt;&lt;/div&gt;&lt;div&gt;&lt;b&gt;&lt;br&gt;&lt;/b&gt;&lt;/div&gt;&lt;div&gt;&lt;b&gt;&lt;br&gt;&lt;/b&gt;&lt;/div&gt;&lt;div&gt;&lt;b&gt;&lt;br&gt;&lt;/b&gt;&lt;/div&gt;&lt;div&gt;&lt;b&gt;&lt;br&gt;&lt;/b&gt;&lt;/div&gt;&lt;div&gt;&lt;b&gt;&lt;br&gt;&lt;/b&gt;&lt;/div&gt;&lt;div&gt;&lt;b&gt;&lt;br&gt;&lt;/b&gt;&lt;/div&gt;&lt;div&gt;&lt;br&gt;&lt;/div&gt;&lt;div&gt;&lt;br&gt;&lt;/div&gt;&lt;div&gt;&lt;br&gt;&lt;br&gt;&lt;/div&gt;&lt;div&gt;&lt;b&gt;&lt;br&gt;&lt;/b&gt;&lt;/div&gt;&lt;div&gt;&lt;b&gt;OAuth2Success 핸들러&lt;/b&gt;&lt;/div&gt;" style="rounded=1;whiteSpace=wrap;html=1;" vertex="1" parent="1">
          <mxGeometry x="176.5" y="-2028" width="170" height="230" as="geometry" />
        </mxCell>
        <mxCell id="1A47Y8RJJ1MLDTLqIAWW-19" value="" style="edgeStyle=orthogonalEdgeStyle;rounded=1;orthogonalLoop=1;jettySize=auto;html=1;curved=0;strokeWidth=2;exitX=0.5;exitY=0;exitDx=0;exitDy=0;strokeColor=#FFFFFF;" edge="1" parent="1" source="1A47Y8RJJ1MLDTLqIAWW-12" target="1A47Y8RJJ1MLDTLqIAWW-72">
          <mxGeometry relative="1" as="geometry">
            <mxPoint x="261.5" y="-1970.5" as="sourcePoint" />
            <mxPoint x="261.5" y="-2098" as="targetPoint" />
            <Array as="points">
              <mxPoint x="262" y="-2078" />
              <mxPoint x="262" y="-2078" />
            </Array>
          </mxGeometry>
        </mxCell>
        <mxCell id="1A47Y8RJJ1MLDTLqIAWW-20" value="" style="edgeStyle=orthogonalEdgeStyle;rounded=1;orthogonalLoop=1;jettySize=auto;html=1;curved=0;strokeWidth=2;exitX=0.5;exitY=1;exitDx=0;exitDy=0;entryX=0.5;entryY=0;entryDx=0;entryDy=0;strokeColor=#FFFFFF;" edge="1" parent="1" source="1A47Y8RJJ1MLDTLqIAWW-6" target="1A47Y8RJJ1MLDTLqIAWW-8">
          <mxGeometry relative="1" as="geometry">
            <mxPoint x="691.5" y="-1965" as="sourcePoint" />
            <mxPoint x="691.5" y="-2093" as="targetPoint" />
          </mxGeometry>
        </mxCell>
        <mxCell id="1A47Y8RJJ1MLDTLqIAWW-22" value="" style="edgeStyle=orthogonalEdgeStyle;rounded=1;orthogonalLoop=1;jettySize=auto;html=1;curved=0;strokeWidth=2;exitX=0.5;exitY=1;exitDx=0;exitDy=0;entryX=0.5;entryY=1;entryDx=0;entryDy=0;strokeColor=#FFFFFF;" edge="1" parent="1" source="1A47Y8RJJ1MLDTLqIAWW-8" target="1A47Y8RJJ1MLDTLqIAWW-12">
          <mxGeometry relative="1" as="geometry">
            <mxPoint x="451.81999999999994" y="-1696.75" as="sourcePoint" />
            <mxPoint x="451.5" y="-1832.75" as="targetPoint" />
          </mxGeometry>
        </mxCell>
        <mxCell id="1A47Y8RJJ1MLDTLqIAWW-45" value="&lt;h4&gt;&lt;br&gt;&lt;/h4&gt;" style="rounded=1;whiteSpace=wrap;html=1;fillColor=#e51400;strokeColor=#B20000;fontColor=#ffffff;" vertex="1" parent="1">
          <mxGeometry x="1018.25" y="-1762" width="478" height="123" as="geometry" />
        </mxCell>
        <mxCell id="1A47Y8RJJ1MLDTLqIAWW-46" value="&lt;h4&gt;&lt;br&gt;&lt;/h4&gt;" style="rounded=1;whiteSpace=wrap;html=1;fillColor=#e51400;strokeColor=#B20000;fontColor=#ffffff;" vertex="1" parent="1">
          <mxGeometry x="1014.25" y="-1766" width="473" height="119" as="geometry" />
        </mxCell>
        <mxCell id="1A47Y8RJJ1MLDTLqIAWW-47" value="&lt;h3&gt;&lt;font style=&quot;&quot; face=&quot;Comic Sans MS&quot;&gt;SIMPLYRUN 백엔드 서버&lt;/font&gt;&lt;/h3&gt;" style="rounded=1;whiteSpace=wrap;html=1;fillColor=#0050ef;strokeColor=#001DBC;fontColor=#ffffff;" vertex="1" parent="1">
          <mxGeometry x="1011.25" y="-2128" width="466" height="50" as="geometry" />
        </mxCell>
        <mxCell id="1A47Y8RJJ1MLDTLqIAWW-48" value="&lt;h4&gt;&lt;font face=&quot;Comic Sans MS&quot;&gt;&lt;br&gt;&lt;/font&gt;&lt;font face=&quot;Comic Sans MS&quot;&gt;&lt;br&gt;&lt;/font&gt;&lt;font face=&quot;Comic Sans MS&quot;&gt;&lt;br&gt;&lt;br&gt;&lt;br&gt;&lt;br&gt;&lt;br&gt;&lt;br&gt;&lt;br&gt;&lt;br&gt;&lt;br&gt;&lt;br&gt;&lt;br&gt;&lt;br&gt;Spring Security&lt;/font&gt;&lt;/h4&gt;" style="rounded=1;whiteSpace=wrap;html=1;fillColor=#d80073;strokeColor=#A50040;fontColor=#ffffff;" vertex="1" parent="1">
          <mxGeometry x="1011.25" y="-2048" width="466" height="240" as="geometry" />
        </mxCell>
        <mxCell id="1A47Y8RJJ1MLDTLqIAWW-49" value="&lt;h6&gt;&lt;font color=&quot;#ffffff&quot;&gt;HTTP Request&lt;/font&gt;&lt;/h6&gt;" style="rounded=1;whiteSpace=wrap;html=1;fillColor=#111D70;" vertex="1" parent="1">
          <mxGeometry x="1347.25" y="-2113" width="70" height="20" as="geometry" />
        </mxCell>
        <mxCell id="1A47Y8RJJ1MLDTLqIAWW-50" value="&lt;h4&gt;&lt;br&gt;&lt;/h4&gt;&lt;div&gt;&lt;b&gt;&lt;br&gt;&lt;/b&gt;&lt;/div&gt;&lt;div&gt;&lt;b&gt;&lt;br&gt;&lt;/b&gt;&lt;/div&gt;&lt;div&gt;&lt;b&gt;&lt;br&gt;&lt;/b&gt;&lt;/div&gt;&lt;div&gt;&lt;b&gt;Spring MVC 컨트롤러&lt;/b&gt;&lt;/div&gt;" style="rounded=1;whiteSpace=wrap;html=1;fillColor=#e51400;strokeColor=#B20000;fontColor=#ffffff;" vertex="1" parent="1">
          <mxGeometry x="1011.25" y="-1768" width="467.5" height="110" as="geometry" />
        </mxCell>
        <mxCell id="1A47Y8RJJ1MLDTLqIAWW-51" value="&lt;h3&gt;&lt;br&gt;&lt;br&gt;&lt;br&gt;&lt;br&gt;&lt;br&gt;&lt;br&gt;&lt;br&gt;&lt;span style=&quot;background-color: initial;&quot;&gt;&lt;font style=&quot;&quot; size=&quot;1&quot;&gt;*Response 헤더 - JWT 액세스 토큰&lt;br&gt;&lt;/font&gt;&lt;/span&gt;&lt;span style=&quot;background-color: initial;&quot;&gt;&lt;font style=&quot;&quot; size=&quot;1&quot;&gt;유효성 검증*&lt;br&gt;&lt;/font&gt;&lt;/span&gt;&lt;span style=&quot;background-color: initial; font-size: 12px;&quot;&gt;HTTP Filter Chain&lt;/span&gt;&lt;/h3&gt;" style="rounded=1;whiteSpace=wrap;html=1;fillColor=default;strokeColor=#36393d;shadow=0;glass=0;gradientColor=none;fillStyle=auto;" vertex="1" parent="1">
          <mxGeometry x="1302.25" y="-2028" width="160" height="180" as="geometry" />
        </mxCell>
        <mxCell id="1A47Y8RJJ1MLDTLqIAWW-52" value="" style="edgeStyle=orthogonalEdgeStyle;rounded=1;orthogonalLoop=1;jettySize=auto;html=1;curved=0;strokeWidth=2;" edge="1" parent="1" source="1A47Y8RJJ1MLDTLqIAWW-53" target="1A47Y8RJJ1MLDTLqIAWW-54">
          <mxGeometry relative="1" as="geometry" />
        </mxCell>
        <mxCell id="1A47Y8RJJ1MLDTLqIAWW-53" value="&lt;h6&gt;HTTP Request&lt;/h6&gt;" style="rounded=1;whiteSpace=wrap;html=1;fillColor=#111D70;fontColor=#ffffff;strokeColor=#432D57;" vertex="1" parent="1">
          <mxGeometry x="1347.25" y="-2008" width="70" height="20" as="geometry" />
        </mxCell>
        <mxCell id="1A47Y8RJJ1MLDTLqIAWW-54" value="&lt;h5&gt;JWT Filter&lt;/h5&gt;" style="rounded=1;whiteSpace=wrap;html=1;fillColor=#3D0D35;fontColor=#ffffff;strokeColor=#432D57;" vertex="1" parent="1">
          <mxGeometry x="1347.25" y="-1933" width="70" height="20" as="geometry" />
        </mxCell>
        <mxCell id="1A47Y8RJJ1MLDTLqIAWW-55" value="&lt;div&gt;&lt;b&gt;&lt;br&gt;&lt;/b&gt;&lt;/div&gt;&lt;div&gt;&lt;b&gt;&lt;br&gt;&lt;/b&gt;&lt;/div&gt;&lt;div&gt;&lt;b&gt;&lt;br&gt;&lt;/b&gt;&lt;/div&gt;&lt;div&gt;&lt;b&gt;API 호출&lt;/b&gt;&lt;/div&gt;" style="rounded=1;whiteSpace=wrap;html=1;" vertex="1" parent="1">
          <mxGeometry x="1302.25" y="-1750" width="160" height="62" as="geometry" />
        </mxCell>
        <mxCell id="1A47Y8RJJ1MLDTLqIAWW-56" value="&lt;h6&gt;HTTP Request&lt;/h6&gt;" style="rounded=1;whiteSpace=wrap;html=1;fillColor=#111D70;fontColor=#ffffff;strokeColor=#432D57;" vertex="1" parent="1">
          <mxGeometry x="1347.25" y="-1736.75" width="70" height="20" as="geometry" />
        </mxCell>
        <mxCell id="1A47Y8RJJ1MLDTLqIAWW-57" style="edgeStyle=orthogonalEdgeStyle;rounded=0;orthogonalLoop=1;jettySize=auto;html=1;exitX=0.5;exitY=1;exitDx=0;exitDy=0;" edge="1" parent="1" source="1A47Y8RJJ1MLDTLqIAWW-56" target="1A47Y8RJJ1MLDTLqIAWW-56">
          <mxGeometry relative="1" as="geometry" />
        </mxCell>
        <mxCell id="1A47Y8RJJ1MLDTLqIAWW-58" value="&lt;div&gt;&lt;span style=&quot;background-color: initial;&quot;&gt;&lt;b&gt;정의된 API에서 호출&lt;/b&gt;&lt;/span&gt;&lt;/div&gt;&lt;div&gt;&lt;span style=&quot;background-color: initial;&quot;&gt;&lt;b&gt;&lt;br&gt;&lt;/b&gt;&lt;/span&gt;&lt;/div&gt;&lt;div&gt;&lt;span style=&quot;background-color: initial;&quot;&gt;&lt;br&gt;&lt;/span&gt;&lt;/div&gt;" style="rounded=1;whiteSpace=wrap;html=1;" vertex="1" parent="1">
          <mxGeometry x="1027.25" y="-1750" width="160" height="62" as="geometry" />
        </mxCell>
        <mxCell id="1A47Y8RJJ1MLDTLqIAWW-59" value="&lt;h6&gt;컨트롤러에 종속된 인자&lt;/h6&gt;" style="rounded=1;whiteSpace=wrap;html=1;fillColor=#4A2825;fontColor=#ffffff;strokeColor=#432D57;" vertex="1" parent="1">
          <mxGeometry x="1060.5" y="-1716.75" width="93.5" height="20" as="geometry" />
        </mxCell>
        <mxCell id="1A47Y8RJJ1MLDTLqIAWW-60" value="&lt;div&gt;&lt;b&gt;HTTP Response&lt;/b&gt;&lt;/div&gt;&lt;div&gt;&lt;b&gt;&lt;br&gt;&lt;/b&gt;&lt;/div&gt;&lt;div&gt;&lt;b&gt;&lt;br&gt;&lt;/b&gt;&lt;/div&gt;&lt;div&gt;&lt;b&gt;&lt;br&gt;&lt;/b&gt;&lt;/div&gt;&lt;div&gt;&lt;br&gt;&lt;/div&gt;" style="rounded=1;whiteSpace=wrap;html=1;" vertex="1" parent="1">
          <mxGeometry x="1027.25" y="-1970.5" width="160" height="85" as="geometry" />
        </mxCell>
        <mxCell id="1A47Y8RJJ1MLDTLqIAWW-61" value="&lt;h6&gt;HTTP Response&lt;/h6&gt;" style="rounded=1;whiteSpace=wrap;html=1;fillColor=#3D0D35;fontColor=#ffffff;strokeColor=#432D57;" vertex="1" parent="1">
          <mxGeometry x="1060.5" y="-1933" width="93.5" height="20" as="geometry" />
        </mxCell>
        <mxCell id="1A47Y8RJJ1MLDTLqIAWW-62" value="" style="edgeStyle=orthogonalEdgeStyle;rounded=1;orthogonalLoop=1;jettySize=auto;html=1;curved=0;strokeWidth=2;exitX=0.5;exitY=0;exitDx=0;exitDy=0;strokeColor=#FFFFFF;" edge="1" parent="1" source="1A47Y8RJJ1MLDTLqIAWW-60">
          <mxGeometry relative="1" as="geometry">
            <mxPoint x="1106.93" y="-2038" as="sourcePoint" />
            <mxPoint x="1107.25" y="-2098" as="targetPoint" />
          </mxGeometry>
        </mxCell>
        <mxCell id="1A47Y8RJJ1MLDTLqIAWW-63" value="" style="edgeStyle=orthogonalEdgeStyle;rounded=1;orthogonalLoop=1;jettySize=auto;html=1;curved=0;strokeWidth=2;exitX=0.5;exitY=1;exitDx=0;exitDy=0;entryX=0.5;entryY=0;entryDx=0;entryDy=0;strokeColor=#FFFFFF;" edge="1" parent="1" source="1A47Y8RJJ1MLDTLqIAWW-49" target="1A47Y8RJJ1MLDTLqIAWW-51">
          <mxGeometry relative="1" as="geometry">
            <mxPoint x="1537.25" y="-1965" as="sourcePoint" />
            <mxPoint x="1537.25" y="-2093" as="targetPoint" />
          </mxGeometry>
        </mxCell>
        <mxCell id="1A47Y8RJJ1MLDTLqIAWW-64" value="" style="edgeStyle=orthogonalEdgeStyle;rounded=1;orthogonalLoop=1;jettySize=auto;html=1;curved=0;strokeWidth=2;exitX=0.5;exitY=0;exitDx=0;exitDy=0;strokeColor=#FFFFFF;" edge="1" parent="1" source="1A47Y8RJJ1MLDTLqIAWW-58">
          <mxGeometry relative="1" as="geometry">
            <mxPoint x="1106.93" y="-1758" as="sourcePoint" />
            <mxPoint x="1106.93" y="-1886" as="targetPoint" />
          </mxGeometry>
        </mxCell>
        <mxCell id="1A47Y8RJJ1MLDTLqIAWW-65" value="" style="edgeStyle=orthogonalEdgeStyle;rounded=1;orthogonalLoop=1;jettySize=auto;html=1;curved=0;strokeWidth=2;exitX=0.5;exitY=1;exitDx=0;exitDy=0;entryX=0.5;entryY=0;entryDx=0;entryDy=0;strokeColor=#FFFFFF;" edge="1" parent="1" source="1A47Y8RJJ1MLDTLqIAWW-51" target="1A47Y8RJJ1MLDTLqIAWW-55">
          <mxGeometry relative="1" as="geometry">
            <mxPoint x="1297.57" y="-1696.75" as="sourcePoint" />
            <mxPoint x="1297.25" y="-1832.75" as="targetPoint" />
          </mxGeometry>
        </mxCell>
        <mxCell id="1A47Y8RJJ1MLDTLqIAWW-66" value="&lt;h5&gt;OAuth2.0&lt;/h5&gt;" style="rounded=1;whiteSpace=wrap;html=1;fillColor=#3D0D35;fontColor=#ffffff;strokeColor=#432D57;" vertex="1" parent="1">
          <mxGeometry x="501.5" y="-1933" width="70" height="20" as="geometry" />
        </mxCell>
        <mxCell id="1A47Y8RJJ1MLDTLqIAWW-68" value="&lt;h5&gt;JWT Provider&lt;/h5&gt;" style="rounded=1;whiteSpace=wrap;html=1;fillColor=#3D0D35;fontColor=#ffffff;strokeColor=#432D57;" vertex="1" parent="1">
          <mxGeometry x="226.5" y="-1868" width="70" height="20" as="geometry" />
        </mxCell>
        <mxCell id="1A47Y8RJJ1MLDTLqIAWW-69" value="&lt;h6&gt;HTTP Response&lt;/h6&gt;" style="rounded=1;whiteSpace=wrap;html=1;fillColor=#6a00ff;fontColor=#ffffff;strokeColor=#3700CC;" vertex="1" parent="1">
          <mxGeometry x="226.5" y="-2008" width="70" height="20" as="geometry" />
        </mxCell>
        <mxCell id="1A47Y8RJJ1MLDTLqIAWW-70" value="" style="edgeStyle=orthogonalEdgeStyle;rounded=1;orthogonalLoop=1;jettySize=auto;html=1;curved=0;strokeWidth=2;exitX=0.5;exitY=0;exitDx=0;exitDy=0;" edge="1" parent="1" source="1A47Y8RJJ1MLDTLqIAWW-68" target="1A47Y8RJJ1MLDTLqIAWW-69">
          <mxGeometry relative="1" as="geometry">
            <mxPoint x="560" y="-1759.5" as="sourcePoint" />
            <mxPoint x="320" y="-1748" as="targetPoint" />
            <Array as="points" />
          </mxGeometry>
        </mxCell>
        <mxCell id="1A47Y8RJJ1MLDTLqIAWW-72" value="&lt;h6&gt;HTTP Response&lt;/h6&gt;" style="rounded=1;whiteSpace=wrap;html=1;fillColor=#6a00ff;fontColor=#ffffff;strokeColor=#3700CC;" vertex="1" parent="1">
          <mxGeometry x="226.5" y="-2113" width="70" height="20" as="geometry" />
        </mxCell>
        <mxCell id="1A47Y8RJJ1MLDTLqIAWW-73" value="&lt;h3&gt;&lt;font face=&quot;Comic Sans MS&quot;&gt;Client - 클라이언트&lt;/font&gt;&lt;/h3&gt;" style="rounded=1;whiteSpace=wrap;html=1;fillColor=light-dark(#0050EF,#99CCFF);strokeColor=#001DBC;fontColor=#ffffff;" vertex="1" parent="1">
          <mxGeometry x="165.5" y="-2218" width="466" height="50" as="geometry" />
        </mxCell>
        <mxCell id="1A47Y8RJJ1MLDTLqIAWW-76" value="" style="endArrow=classic;startArrow=classic;html=1;rounded=0;entryX=0.5;entryY=1;entryDx=0;entryDy=0;exitX=0.5;exitY=0;exitDx=0;exitDy=0;strokeColor=light-dark(#000000,#000000);strokeWidth=1.5;" edge="1" parent="1" source="1A47Y8RJJ1MLDTLqIAWW-4" target="1A47Y8RJJ1MLDTLqIAWW-73">
          <mxGeometry width="50" height="50" relative="1" as="geometry">
            <mxPoint x="490" y="-1918" as="sourcePoint" />
            <mxPoint x="540" y="-1968" as="targetPoint" />
          </mxGeometry>
        </mxCell>
        <mxCell id="1A47Y8RJJ1MLDTLqIAWW-82" value="&lt;b&gt;&lt;font style=&quot;font-size: 20px;&quot;&gt;SIMPLYRUN 백엔드&lt;br&gt;소셜 로그인 - 유저가입 로직&lt;/font&gt;&lt;/b&gt;" style="text;html=1;align=center;verticalAlign=middle;whiteSpace=wrap;rounded=0;" vertex="1" parent="1">
          <mxGeometry x="214.75" y="-2278" width="390.5" height="30" as="geometry" />
        </mxCell>
        <mxCell id="1A47Y8RJJ1MLDTLqIAWW-84" value="&lt;b&gt;&lt;font style=&quot;font-size: 20px;&quot;&gt;SIMPLYRUN 백엔드&lt;br&gt;유저 API 호출 로직&lt;/font&gt;&lt;/b&gt;" style="text;html=1;align=center;verticalAlign=middle;whiteSpace=wrap;rounded=0;" vertex="1" parent="1">
          <mxGeometry x="1055.5" y="-2283" width="390.5" height="30" as="geometry" />
        </mxCell>
        <mxCell id="1A47Y8RJJ1MLDTLqIAWW-88" value="&lt;h3&gt;&lt;font face=&quot;Comic Sans MS&quot;&gt;Client - 클라이언트&lt;/font&gt;&lt;/h3&gt;" style="rounded=1;whiteSpace=wrap;html=1;fillColor=light-dark(#0050EF,#99CCFF);strokeColor=#001DBC;fontColor=#ffffff;" vertex="1" parent="1">
          <mxGeometry x="1011.25" y="-2218" width="466" height="50" as="geometry" />
        </mxCell>
        <mxCell id="1A47Y8RJJ1MLDTLqIAWW-90" value="" style="endArrow=classic;startArrow=classic;html=1;rounded=0;entryX=0.5;entryY=0;entryDx=0;entryDy=0;exitX=0.5;exitY=1;exitDx=0;exitDy=0;strokeColor=light-dark(#000000,#000000);strokeWidth=1.5;" edge="1" parent="1" source="1A47Y8RJJ1MLDTLqIAWW-88" target="1A47Y8RJJ1MLDTLqIAWW-47">
          <mxGeometry width="50" height="50" relative="1" as="geometry">
            <mxPoint x="1254.75" y="-2768" as="sourcePoint" />
            <mxPoint x="1254.75" y="-2808" as="targetPoint" />
          </mxGeometry>
        </mxCell>
      </root>
    </mxGraphModel>
  </diagram>
</mxfile>
